<?xml version="1.0" encoding="iso-8859-1"?>
<!-- Generator: Adobe Illustrator 19.0.0, SVG Export Plug-In . SVG Version: 6.00 Build 0)  -->
<svg version="1.1" id="Capa_1" xmlns="http://www.w3.org/2000/svg" xmlns:xlink="http://www.w3.org/1999/xlink" x="0px" y="0px"
	 viewBox="0 0 512.001 512.001" style="enable-background:new 0 0 512.001 512.001;" xml:space="preserve">
<path style="fill:#96E1BE;" d="M512,256c0,141.385-114.615,256-256,256S0,397.385,0,256S114.615,0,256,0S512,114.615,512,256z"/>
<path style="fill:#5AC3A5;" d="M0.051,252H511.95c0.02,1.333,0.051,2.663,0.051,4c0,141.385-114.615,256-256,256S0,397.385,0,256
	C0,254.663,0.03,253.333,0.051,252z"/>
<path style="fill:#D29650;" d="M392.25,70v312.558c0,5.523-4.477,10-10,10H44.75c-2.873,0-5.455-1.218-7.279-3.158
	c-0.75-1.226-1.481-2.463-2.211-3.702c-0.327-0.989-0.51-2.042-0.51-3.14V127.166C49.649,101.633,68.841,78.918,91.336,60H382.25
	C387.773,60,392.25,64.477,392.25,70z"/>
<path style="fill:#AA6432;" d="M246.756,60v332.558h-66.512V60H246.756z M63.088,306.046h-5.652c-2.761,0-5,2.239-5,5v36.957
	c0,2.761,2.239,5,5,5h5.652c2.761,0,5-2.239,5-5v-36.957C68.088,308.284,65.85,306.046,63.088,306.046z M138.523,306.046
	c-12.241,0-22.294,9.368-23.381,21.325c-0.105,1.16,0.835,2.153,1.999,2.153h13.556v15.384c0,4.168,3.146,7.808,7.305,8.077
	c4.558,0.295,8.347-3.315,8.347-7.809v-15.652h13.556c1.164,0,2.104-0.993,1.999-2.153
	C160.817,315.413,150.764,306.046,138.523,306.046z M94.393,306.046H88.74c-2.761,0-5,2.239-5,5v36.957c0,2.761,2.239,5,5,5h5.652
	c2.761,0,5-2.239,5-5v-36.957C99.393,308.284,97.154,306.046,94.393,306.046z"/>
<path style="fill:#FFEB50;" d="M246.756,60v86.257h-12.471L213.5,125.473l-20.785,20.785h-12.471V60H246.756z"/>
<path style="fill:#1E233C;" d="M470,390c0,55.229-44.771,100-100,100c-50.13,0-91.642-36.888-98.88-85H181v-30h90.12
	c7.238-48.112,48.75-85,98.88-85C425.229,290,470,334.771,470,390z"/>
<path style="fill:#FF6E55;" d="M201,380v20c0,5.523-4.477,10-10,10H51.495c-7.525-9.977-14.34-20.518-20.363-31.555
	C31.881,373.663,36.007,370,41,370h150C196.523,370,201,374.477,201,380z"/>
<path style="fill:#D9593F;" d="M201,380v20c0,5.523-4.477,10-10,10H51.495c-4.855-6.437-9.409-13.112-13.651-20H191
	C196.523,390,201,385.523,201,380z"/>
<path style="fill:#E6FAFF;" d="M450,390c0,44.183-35.817,80-80,80s-80-35.817-80-80s35.817-80,80-80S450,345.817,450,390z"/>
<path style="fill:#AFEBD2;" d="M450,390c0,44.183-35.817,80-80,80c-5.129,0-10.139-0.502-15-1.425c37.01-7.024,65-39.522,65-78.575
	c0-39.054-27.99-71.551-65-78.575c4.861-0.922,9.871-1.425,15-1.425C414.183,310,450,345.817,450,390z"/>
<path style="fill:#FF6E55;" d="M466.798,332.796l-94.617,94.618c-0.393,0.392-0.907,0.587-1.422,0.585
	c-0.514,0.002-1.029-0.193-1.422-0.585l-40.929-40.929c-0.781-0.781-0.781-2.047,0-2.828l11.314-11.314
	c0.781-0.781,2.047-0.781,2.828,0l28.208,28.208l81.897-81.897c0.781-0.781,2.047-0.781,2.828,0l11.314,11.314
	C467.579,330.748,467.579,332.014,466.798,332.796z"/>
<g>
</g>
<g>
</g>
<g>
</g>
<g>
</g>
<g>
</g>
<g>
</g>
<g>
</g>
<g>
</g>
<g>
</g>
<g>
</g>
<g>
</g>
<g>
</g>
<g>
</g>
<g>
</g>
<g>
</g>
</svg>
